<?xml version="1.0" standalone="no"?><!DOCTYPE svg PUBLIC "-//W3C//DTD SVG 1.1//EN" "http://www.w3.org/Graphics/SVG/1.1/DTD/svg11.dtd"><svg t="1752736137857" class="icon" viewBox="0 0 1156 1024" version="1.1" xmlns="http://www.w3.org/2000/svg" p-id="5000" xmlns:xlink="http://www.w3.org/1999/xlink" width="36.125" height="32"><path d="M1080.215 32a59.968 59.968 0 1 1 0 120h-1000a60.032 60.032 0 0 1 0-120h999.936z m0 420.032a59.968 59.968 0 1 1 0 120h-600a60.032 60.032 0 0 1 0-120.064h600zM209.815 308.8a9.984 9.984 0 0 1 16.768 7.296l6.528 375.296a9.984 9.984 0 0 1-16.448 7.872L7.127 522.88a20.032 20.032 0 0 1-0.576-30.08l203.328-184.064z m870.4 563.2a59.968 59.968 0 1 1 0 120h-1000a59.968 59.968 0 1 1 0-120h999.936z" fill="#2c2c2c" p-id="5001"></path></svg>