<?xml version="1.0" standalone="no"?><!DOCTYPE svg PUBLIC "-//W3C//DTD SVG 1.1//EN" "http://www.w3.org/Graphics/SVG/1.1/DTD/svg11.dtd"><svg t="1752736113570" class="icon" viewBox="0 0 1156 1024" version="1.1" xmlns="http://www.w3.org/2000/svg" p-id="4602" xmlns:xlink="http://www.w3.org/1999/xlink" width="36.125" height="32"><path d="M107.29843748 962a56.22 56.22 0 1 1 0-112.5l937.5 0a56.28 56.28 0 0 1 0 112.49999999l-937.44 1e-8z m0-393.78a56.22 56.22 0 1 1 0-112.5l562.5 0a56.28 56.28 0 0 1 0 112.56l-562.5 0zM923.29843748 702.5a9.36 9.36 0 0 1-15.72-6.84l-6.12000001-351.84a9.36 9.36 0 0 1 15.42000002-7.38L1113.31843748 501.8a18.78 18.78 0 0 1 0.54 28.2l-190.62 172.56z m-816-528a56.22 56.22 0 1 1 0-112.5l937.5 1e-8a56.22 56.22 0 1 1 0 112.49999999l-937.44000001 0z" fill="#2c2c2c" p-id="4603"></path></svg>